<?xml version="1.0" standalone="no"?><!DOCTYPE svg PUBLIC "-//W3C//DTD SVG 1.1//EN" "http://www.w3.org/Graphics/SVG/1.1/DTD/svg11.dtd"><svg t="1718849653657" class="icon" viewBox="0 0 1024 1024" version="1.1" xmlns="http://www.w3.org/2000/svg" p-id="13615" xmlns:xlink="http://www.w3.org/1999/xlink" width="200" height="200"><path d="M0 0h1024v1024H0z" fill="#FFFFFF" fill-opacity=".01" p-id="13616"></path><path d="M392.043789 407.848421v121.397895c0 42.576842-33.414737 77.069474-74.617263 77.069473-41.202526 0-74.603789-34.492632-74.603789-77.069473v-121.397895h149.221052z m487.612632-3.637895C938.994526 404.210526 970.105263 449.455158 970.105263 505.263158c0 55.808-31.110737 101.052632-90.448842 101.052631-59.324632 0-90.435368-45.244632-90.435368-101.052631 0-55.808 31.110737-101.052632 90.435368-101.052632z m-758.891789 3.637895c52.089263 0 94.315789 43.614316 94.315789 97.414737 0 53.800421-42.226526 97.414737-94.315789 97.414737H53.894737V407.848421z m404.304842 0c28.375579 0 51.375158 23.754105 51.375158 53.072842a53.786947 53.786947 0 0 1-15.036632 37.510737 59.540211 59.540211 0 0 1 20.668632 45.365895c0 32.512-25.519158 58.88-57.007158 58.88h-95.029895V407.848421z m183.70021 0c28.375579 0 51.375158 23.754105 51.375158 53.072842a53.786947 53.786947 0 0 1-15.023158 37.510737 59.540211 59.540211 0 0 1 20.655158 45.365895c0 32.512-25.519158 58.88-57.007158 58.88h-95.016421V407.848421z m-172.611368 29.80379h-18.310737l-54.89179 134.494315h18.297264l54.905263-134.494315z m183.70021 0h-18.297263l-54.905263 134.494315h18.297263l54.905263-134.494315z m-577.28 0.363789H117.948632c-10.886737 0-19.712 9.108211-19.712 20.345263v93.062737c0 11.250526 8.825263 20.358737 19.712 20.358737h24.629894v-4.365474a10.024421 10.024421 0 0 0-9.849263-10.172631 10.024421 10.024421 0 0 1-9.862737-10.172632V462.012632c0-5.632 4.419368-10.186105 9.862737-10.186106h9.849263V438.029474z m741.48379 0h-24.629895v13.810526h9.849263c5.443368 0 9.849263 4.554105 9.849263 10.186106v85.059368a10.024421 10.024421 0 0 1-9.849263 10.172632 10.024421 10.024421 0 0 0-9.849263 10.172631v4.365474h24.629895c10.886737 0 19.712-9.108211 19.712-20.345263V458.374737c0-11.250526-8.825263-20.358737-19.712-20.358737z m-551.733895 82.782316h-25.330526v26.165895h25.330526v-26.165895z m0-67.166316h-25.330526v26.165895h25.330526v-26.165895z" fill="#815FFC" p-id="13617"></path></svg>