<?xml version="1.0" standalone="no"?><!DOCTYPE svg PUBLIC "-//W3C//DTD SVG 1.1//EN" "http://www.w3.org/Graphics/SVG/1.1/DTD/svg11.dtd"><svg t="1718866228211" class="icon" viewBox="0 0 1024 1024" version="1.1" xmlns="http://www.w3.org/2000/svg" p-id="16863" xmlns:xlink="http://www.w3.org/1999/xlink" width="200" height="200"><path d="M492.8 384V185.6c0-76.8 0-140.8-6.4-185.6L480 6.4c-25.6 12.8-64 51.2-128 128-57.6 70.4-96 179.2-108.8 320 0 108.8 25.6 204.8 76.8 275.2 51.2 70.4 96 121.6 134.4 147.2 6.4-32 19.2-89.6 25.6-160 12.8-76.8 19.2-160 12.8-243.2V384z m25.6 492.8c-6.4 19.2-6.4 25.6-12.8 38.4l-6.4 12.8c6.4 19.2 6.4 44.8 6.4 57.6v32l32 6.4v-44.8c0-25.6 0-51.2 6.4-70.4v-6.4l-12.8-12.8c-6.4 0-12.8-6.4-12.8-12.8zM768 377.6C729.6 256 691.2 166.4 640 115.2L544 12.8c0 32 0 76.8 6.4 134.4v473.6c0 44.8-6.4 89.6-12.8 121.6 0 32 6.4 57.6 12.8 83.2s19.2 38.4 25.6 44.8c6.4-6.4 12.8-12.8 19.2-12.8 44.8-32 89.6-83.2 134.4-166.4 44.8-83.2 57.6-185.6 38.4-313.6z" fill="#52C41A" p-id="16864"></path></svg>