<?xml version="1.0" standalone="no"?><!DOCTYPE svg PUBLIC "-//W3C//DTD SVG 1.1//EN" "http://www.w3.org/Graphics/SVG/1.1/DTD/svg11.dtd"><svg class="icon" width="200px" height="161.26px" viewBox="0 0 1270 1024" version="1.1" xmlns="http://www.w3.org/2000/svg"><path d="M857.0195 325.288659l-139.440127 45.567718-121.311646 53.576361-33.943494 8.969426c-8.634416 8.229875-17.698656 16.560885-27.502448 24.993031-10.745613 9.285474-20.764316 17.72394-28.456911 23.842618-8.533281 6.750773-21.18782 19.405312-27.622545 27.420276-9.582558 12.022444-17.174017 24.778119-20.441948 34.594551-5.79631 17.72394-2.951883 35.65015 8.223554 52.211036 14.335912 21.093006 42.900278 42.609515 76.199036 57.267795 16.971747 7.490324 45.536114 17.085524 67.03366 22.464651 35.726002 9.070561 104.870859 18.880674 142.916649 20.359776 7.692594 0.316047 18.021025 0.316047 18.444528 0 0.840686-0.53096 6.744452-11.813853 13.59636-25.840038 23.393831-47.786372 40.264443-92.601898 49.429819-130.894205 5.480262-23.197881 9.79747-54.10732 12.641897-90.705613 0.745872-10.227295 1.061919-44.505799 0.429825-56.10474-0.948142-18.98813-2.635836-34.385961-5.265351-49.467744-0.429825-2.212332-0.53096-4.222394-0.316047-4.329849 0.417183-0.316047 1.681372-0.73323 18.861711-5.688854l-3.476522-8.229875z m-31.832297 18.672082c1.26419 0 4.639576 32.38222 5.480262 52.843131 0.214912 4.323529 0.107456 7.174277-0.107456 7.174276-0.840686 0-17.806112-10.018704-29.929692-17.610163-10.543342-6.649638-30.561787-19.936272-33.728582-22.470972-1.055598-0.739551-0.948142-0.840686 7.692595-3.792569 14.651959-4.961945 49.429818-16.143703 50.592873-16.143703zM754.152382 367.379856c0.948142 0 3.375387 1.371646 9.165375 4.961944 21.712459 13.609002 51.231289 30.062432 63.879507 35.542695 3.893704 1.687693 4.317208 1.055598-4.639576 7.174276-19.184079 13.078043-43.10887 25.947494-72.406467 38.918081-5.164215 2.319788-9.481423 4.108617-9.588879 4.108617-0.208591 0 0.423504-2.629515 1.26419-5.79631 7.0605-26.263542 11.06166-52.843131 11.276572-74.144728 0.075851-7.035216 0.423504-10.650798 1.055599-10.86571-0.208591 0.107456-0.101135 0.107456 0 0.107456z m-14.645638 5.594039c0.632095 0.632095 0.214912 24.259801-0.632095 30.694527a269.006932 269.006932 0 0 1-9.690014 45.877445c-1.163055 3.900025-2.218653 7.174277-2.427245 7.382868-0.423504 0.524639-14.866871-13.609002-19.601261-19.089265-8.223554-9.494065-14.645638-18.98813-19.392671-28.267282-2.427244-4.747032-6.219813-14.032506-5.903766-14.348554 1.687693-1.156734 57.229869-22.673243 57.647052-22.25606z m-68.929945 27.110549c0.107456 0 0.208591 0 0.316047 0.101135 0.214912 0.214912 0.948142 1.896285 1.580237 3.792569 3.369066 9.178017 10.960525 22.679564 17.496386 31.332943 7.167956 9.487744 16.548244 19.613904 24.348294 26.263541 2.528379 2.104876 4.848168 4.108617 5.164216 4.424664 0.632095 0.632095 0.840686 0.53096-16.339653 7.066821-19.910988 7.591459-41.629768 15.18924-66.496379 23.197881-5.941692 1.921568-11.883383 3.855779-17.812434 5.808952-0.948142 0.316047-0.632095-0.214912 2.104876-4.538441 12.32585-19.304177 31.086425-57.160339 41.629768-83.95484 1.795149-4.639576 3.583978-9.279153 3.900025-10.334751 0.423504-1.472781 0.948142-2.003741 2.319788-2.743291 0.739551-0.208591 1.472781-0.417183 1.788829-0.417183z m-21.080364 8.754514c0.316047 0.208591-5.056759 11.491485-10.32843 21.826235-10.220974 19.936272-21.396411 39.556497-36.364417 63.399115-2.528379 4.108617-4.949303 7.901186-5.265351 8.32469-0.524639 0.739551-0.739551 0.524639-2.427244-2.736971-3.583978-7.066821-6.535861-16.143703-8.116098-24.468392-1.580237-8.229875-1.26419-22.572108 0.524639-31.434078 1.371646-6.542182 1.26419-6.434726 4.424664-8.014963 13.488904-6.858229 57.128734-27.31914 57.545916-26.895636h0.006321z m181.809446 7.382868v4.424664c0 23.52025-2.528379 55.795014-6.219814 79.315263-0.632095 4.114938-1.163055 7.490324-1.264189 7.59146 0 0-3.053018-0.840686-6.636996-1.896285a272.097876 272.097876 0 0 1-48.481676-20.776958c-10.220974-5.587719-25.081524-14.772057-24.658021-15.18924 0.101135-0.107456 4.53212-2.427244 9.690014-5.164215 20.663181-10.758255 40.473034-22.357195 57.653373-33.861322 6.434726-4.323529 16.118419-11.282893 18.235936-13.179177l1.687694-1.26419h-0.006321z m-261.383868 31.219165c0.417183 0 0.316047 0.840686-0.316048 4.639576-0.423504 2.743292-0.948142 7.800051-1.156733 11.289215-0.847007 15.397831 1.687693 26.78818 9.272831 42.394602 2.104876 4.32985 3.792569 7.913828 3.685113 8.021284-0.73323 0.632095-70.510182 21.093006-92.431231 27.104228-6.535861 1.795149-12.224715 3.375387-12.648219 3.476521-0.739551 0.214912-0.847007 0.107456-0.530959-1.687693 2.427244-15.498966 14.234776-35.751285 30.675563-52.84313 10.960525-11.384028 19.708718-18.033666 34.676725-26.573268 10.745613-6.118678 27.293856-15.296696 28.558046-15.713879 0-0.107456 0.107456-0.107456 0.214912-0.107456z m164.420516 29.430337c0.101135-0.107456 2.635836 1.26419 5.688854 3.053018 22.553145 13.084364 53.961939 25.207943 80.731156 31.434078l2.427244 0.530959-3.375387 1.896285c-14.013543 7.800051-60.080617 26.996772-107.184326 44.613255-6.851908 2.5347-13.596361 5.069401-14.866871 5.59404-1.26419 0.524639-2.420923 0.840686-2.420923 0.739551 0-0.107456 1.896285-3.79889 4.317208-8.33101 13.172857-24.683304 26.459491-54.739415 33.203943-75.62383 0.840686-2.003741 1.365325-3.792569 1.479102-3.906346z m-16.763156 5.480262c0.107456 0.107456-0.73323 2.319788-1.788828 4.854489-9.165376 22.249739-21.18782 46.515861-36.57933 73.721224-3.900025 6.959364-7.167956 12.553404-7.269091 12.553404-0.107456 0-3.26793-1.896285-7.066821-4.222394-22.344553-13.716459-42.160727-30.58707-55.118672-46.933043l-1.896284-2.319789 9.588879-2.635835c34.354356-9.386609 63.550818-19.512768 92.538688-31.958716 4.108617-1.687693 7.484003-3.059339 7.591459-3.05934z m104.137629 36.389702s0.101135 0.107456 0 0c0.101135 2.427244-5.271671 24.152345-9.702656 39.866223-3.685113 13.185499-6.851908 23.52025-12.641898 41.768828-2.5347 8.014963-4.747032 14.664601-4.854488 14.664601-0.107456 0-0.73323-0.113777-1.365325-0.316047-31.301338-5.701496-59.341066-13.609002-85.68678-24.152345-7.382868-2.951883-17.919889-7.698915-18.551984-8.229875-0.208591-0.214912 6.112357-3.166795 14.12732-6.649638 47.950716-20.985549 97.702903-44.821847 114.775785-55.055463 1.99742-1.26419 3.577657-1.896285 3.900026-1.896284z m-240.410961 8.229875c0.214912 0.214912-13.172857 19.512768-31.939753 45.77631-6.535861 9.171696-14.120999 19.936272-16.965426 23.937432a428.301159 428.301159 0 0 0-9.588879 14.133642l-4.430985 6.851908-4.740712-4.007482c-5.587719-4.639576-15.284054-14.557145-19.607582-20.037407-9.06424-11.282893-15.176598-23.197881-17.603842-34.069913-1.156734-5.056759-1.156734-7.591459-0.101136-7.907507 1.580237-0.417183 29.7211-7.066821 56.066815-13.185499a4639.728002 4639.728002 0 0 0 37.736063-8.855649c6.112357-1.485423 11.06166-2.642157 11.169116-2.642156h0.006321z m13.495226 5.164215l3.369065 3.792569c15.170277 16.984389 30.669243 29.537793 49.429819 40.51096 3.369066 1.896285 5.903766 3.583978 5.688853 3.691434-0.739551 0.524639-65.131055 23.412794-94.959611 33.753866a2551.93763 2551.93763 0 0 1-30.669243 10.650798c-0.107456 0-1.055598-0.632095-2.111197-1.371646l-1.896284-1.371646 3.059339-4.424664c9.904927-14.348553 22.344553-30.062432 49.429818-62.754378l18.646799-22.464651 0.012642-0.012642z m84.100221 60.225998c0.101135-0.107456 4.740711 1.580237 10.429566 3.691434 13.710138 5.170536 24.563206 8.438466 39.107709 12.129901 17.919889 4.53212 43.848421 8.963105 59.132474 10.227295 2.313467 0.214912 3.577657 0.423504 3.160475 0.739551-0.739551 0.423504-16.232196 5.587719-27.616225 9.171696-18.128481 5.701496-73.462065 22.047469-118.568355 35.018056-8.324689 2.427244-15.486324 4.424664-15.916148 4.53212-1.049277 0.214912-4.53212-0.739551-4.53212-1.163055 0-0.208591 2.528379-3.476522 5.587718-7.06682a625.186067 625.186067 0 0 0 42.792822-57.583842c3.476522-5.277992 6.428405-9.607842 6.428405-9.708977v0.012641z m-18.545663 0.53096c0.101135 0.101135-7.382868 12.123579-20.448269 32.799403-5.587719 8.754514-11.807532 18.665761-14.026185 22.148604-2.104876 3.375387-5.26535 8.647058-7.0605 11.59894l-3.053018 5.379128-1.580237-0.423504c-3.792569-1.055598-30.460651-10.442207-37.521151-13.286634a260.833945 260.833945 0 0 1-24.556885-11.289214c-8.432145-4.53212-18.975488-11.289214-18.128481-11.497806 0.208591-0.101135 14.645638-4.007481 32.034568-8.754514 46.161888-12.547083 71.780693-19.828816 88.537527-25.100487 3.059339-0.948142 5.688854-1.687693 5.802631-1.580237z m131.216573 30.795662h0.101135c0.423504 1.055598-16.649379 48.519602-22.869192 63.493929-1.371646 3.375387-1.896285 4.222394-2.629515 4.108617-1.795149-0.094814-26.560626-3.577657-41.636089-5.789989-26.238258-4.013802-70.301591-11.706397-81.36325-14.241098l-2.52838-0.524638 15.701237-3.590299c33.728582-7.591459 49.960778-11.706397 66.401565-16.769477a469.140808 469.140808 0 0 0 62.084357-23.943753c3.26793-1.472781 6.004901-2.635836 6.738132-2.743292zM713.255844 0.012642c-2.319788-0.316047-39.739804 13.185499-63.873186 22.995611-32.571848 13.286634-57.861964 25.941173-73.462065 36.91434-5.79631 4.108617-13.065401 11.390349-14.228455 14.234776-0.417183 1.055598-0.632095 2.326109-0.632095 3.583978l14.120999 13.400411 33.621126 10.751934 79.991605 14.348553 91.48941 15.713879 0.948143-7.913828c-0.316047 0-0.524639-0.101135-0.840686-0.101135l-12.009803-1.896285-2.427244-4.32985c-12.439627-21.933692-26.137123-49.151697-34.152086-67.50141-6.219813-14.234776-12.123579-30.688206-15.39151-42.502059-1.788828-7.174277-1.99742-7.591459-3.160474-7.698915z m-1.687693 5.372806h0.107456c0.101135 0.107456 0.524639 3.059339 0.948142 6.542182 1.788828 14.765736 5.056759 29.000512 10.220974 44.404664 3.900025 11.598941 3.900025 10.966846-0.632095 9.5952-10.745613-2.951883-58.911241-11.282893-93.802877-16.131061-5.587719-0.739551-10.32843-1.479102-10.328431-1.580237-0.417183-0.423504 25.18898-13.823915 36.471874-19.089265 14.437047-6.655959 54.063074-23.210523 57.014957-23.735162zM609.971543 52.647181l4.108617 1.371646c22.344553 7.59778 78.518824 18.349714 109.510435 20.884414 3.476522 0.316047 6.428405 0.632095 6.52954 0.632095 0.107456 0.107456-2.844427 1.687693-6.636996 3.476522-14.968006 7.490324-31.408794 16.668342-42.786501 23.735162-3.369066 2.104876-6.428405 3.792569-6.851909 3.792569-0.417183 0-2.635836-0.423504-4.949302-0.73323l-4.222394-0.632095L654.136012 94.82055a4417.96384 4417.96384 0 0 0-38.684206-37.230387l-5.473942-4.955624H609.971543z m-4.216072 3.267931l14.86055 18.570947c8.116098 10.227295 16.339652 20.245998 18.128481 22.464651 1.788828 2.212332 3.26793 4.007481 3.160474 4.108617-0.417183 0.316047-21.491225-3.792569-32.672984-6.320949-11.485164-2.642157-16.225875-3.906346-23.286374-6.118678l-5.802631-1.902606v-1.479102c0.107456-7.066821 9.06424-17.610163 24.240838-28.368417l1.371646-0.948142z m126.26727 25.315399c0.423504 0 0.948142 0.948142 2.212332 3.792569 3.577657 7.913828 14.759415 29.221746 17.496385 33.336683 0.840686 1.371646 2.319788 1.479102-12.540762-0.948142-35.726002-5.802631-47.217486-7.698915-47.217486-7.913828 0-0.107456 1.055598-0.840686 2.420923-1.580237 11.067981-6.118678 22.243418-13.92505 32.148345-22.25606 2.420923-2.010062 4.633255-3.900025 5.056759-4.222394 0.101135-0.208591 0.316047-0.316047 0.423504-0.208591z" fill="#AEBBCB" /><path d="M562.43801 72.684588s-2.319788 3.691434-0.101136 9.178018c1.371646 3.369066 5.372806 7.490324 9.904927 11.706397 0 0 46.901439 45.77631 52.590293 52.318492 25.928531 29.954976 37.205104 59.480127 38.254381 100.199677 0.632095 26.156085-4.323529 49.151697-16.649379 75.838742C624.509725 369.8071 578.240381 422.650231 506.889513 481.295992l10.429565-3.482843c6.750773-5.06308 15.92247-10.442207 37.420016-22.25606 49.63841-27.218005 105.496633-52.211036 174.009395-77.943617 98.644724-37.129252 260.852908-80.585774 353.183005-94.719416l9.588879-1.472781-1.472781-2.319788c-8.432145-13.084364-14.228455-21.200462-21.181499-29.847519-20.239678-25.106808-44.790242-45.460263-74.840031-62.337196-41.307399-23.096746-94.75102-41.136734-162.410455-54.530824-12.749353-2.528379-40.789082-7.382868-63.550817-10.86571a6485.482929 6485.482929 0 0 1-113.827643-18.558306c-12.32585-2.111197-30.776699-5.271671-43.001414-7.913827-6.320949-1.371646-18.438207-4.216073-27.925951-7.490324-7.585138-2.958204-18.551984-5.910087-20.871772-14.866872v-0.006321z m27.199042 26.370998c0.101135-0.107456 1.788828 0.524639 4.00116 1.26419 4.007481 1.371646 9.165376 2.951883 15.284054 4.639576 4.626934 1.270511 9.266511 2.503096 13.912408 3.691434 6.320949 1.580237 11.59262 3.053018 11.700076 3.053018 0.739551 0.739551 11.384028 34.803143 14.968006 47.887507 1.365325 4.955624 2.420923 9.171696 2.319788 9.171697-0.107456 0.107456-1.270511-1.687693-2.642156-4.108617-12.32585-21.731421-31.832297-43.772569-54.385442-61.496509-2.945562-2.104876-5.157894-4.007481-5.157894-4.108617z m51.850741 14.348553c0.524639 0 2.844427 0.316047 5.688854 0.948143 17.919889 4.007481 50.074555 10.12616 70.617638 13.602681 3.476522 0.53096 6.219813 1.163055 6.219814 1.371646s-1.26419 0.948142-2.844427 1.79515c-3.476522 1.795149-17.502707 10.12616-22.135962 13.286634-11.700076 7.806372-22.243418 16.244838-29.828557 23.842618-3.053018 3.053018-5.688854 5.587719-5.688854 5.587718s-0.632095-1.795149-1.163054-4.007481c-3.792569-14.65828-11.700076-36.389701-18.868032-51.680076-1.163055-2.427244-2.111197-4.639576-2.111197-4.854489 0 0.214912 0 0.107456 0.107456 0.107456h0.006321z m91.274499 17.395251c0.632095 0.214912 1.687693 3.79889 3.792569 11.712718 3.900025 15.296696 5.688854 32.375899 5.056759 48.304689-0.208591 4.424664-0.417183 8.545923-0.625774 9.076883l-0.316048 1.049277-5.473941-1.795149c-11.282893-3.583978-29.619965-8.963105-45.321202-13.39409-8.963105-2.427244-16.232196-4.639576-16.232196-4.854489 0-0.632095 13.071722-13.716459 18.653119-18.665761 10.644478-9.386609 39.524892-31.750125 40.473035-31.427757z m7.269091 1.055599c0.322368-0.316047 43.639829 7.174277 63.348547 10.966845 14.65828 2.844427 35.940914 7.281733 37.211424 7.806372 0.632095 0.214912-1.580237 1.472781-8.647057 4.639576-27.818495 12.553404-48.481676 23.836297-69.03108 37.546435-5.372806 3.583978-9.911247 6.542182-10.012383 6.542182-0.101135 0-0.208591-3.059339-0.208591-6.750773 0-20.037407-4.007481-40.289727-11.39035-57.375251-0.73323-1.687693-1.365325-3.26793-1.26419-3.375386z m112.045135 22.148604c0.316047 0.316047-1.055598 8.86197-2.319788 13.925049-3.792569 15.713878-14.019864 39.025537-26.560626 60.959229-2.212332 3.906346-4.216073 7.066821-4.424664 7.174277-0.208591 0.107456-3.059339-1.472781-6.32727-3.375387-12.224715-7.174277-26.137123-13.918729-41.31372-20.245998-4.209752-1.795149-7.901186-3.274251-8.008642-3.476522-0.739551-0.632095 33.197622-23.103067 51.117512-33.861322 14.222134-8.647058 37.413695-21.516509 37.837198-21.093005z m8.008642 1.264189c0.948142 0 20.132221 5.271671 30.150925 8.229875 24.765477 7.382868 53.222388 17.825075 71.774372 26.263542l7.686273 3.482843-5.372806 1.264189c-45.321202 10.442207-84.106543 22.470972-121.520238 37.653891-3.059339 1.26419-5.802631 2.319788-6.004901 2.319789-0.208591 0 0.840686-2.427244 2.212332-5.372807 11.276572-23.943753 18.545663-48.943105 20.334492-70.251023 0.107456-2.010062 0.423504-3.583978 0.739551-3.583978v-0.006321z m-190.974821 43.873705c0.316047-0.316047 14.968006 3.160474 22.869192 5.379127 12.016123 3.375387 37.521151 11.921309 37.521151 12.553404 0 0.107456-2.844427 2.528379-6.219813 5.486583-13.804952 11.491485-27.085265 23.621385-43.001414 39.019216-4.740711 4.538441-8.748193 8.229875-8.956784 8.229876-0.208591 0-0.316047-0.632095-0.214912-1.479102 2.427244-17.717619 1.896285-40.498318-1.472781-63.595065-0.316047-2.951883-0.632095-5.486583-0.524639-5.594039z m307.861803 0.316047c0.208591 0.208591-6.744452 11.188079-11.169116 17.407893-6.320949 9.070561-15.606422 21.099327-36.57933 47.464003-11.06166 13.918729-23.501287 29.638928-27.609903 34.91692-4.222394 5.26535-7.698915 9.696335-7.800051 9.696336-0.107456 0-1.479102-1.896285-2.951883-4.216073-11.801211-17.72394-25.928531-33.222906-42.685366-47.147956a243.230104 243.230104 0 0 0-7.800051-6.320949c-1.163055-0.847007-2.111197-1.694014-2.111197-1.80147 0-0.316047 17.919889-8.014963 31.51625-13.495225 23.817334-9.708977 56.275406-21.307918 80.6237-28.798242 12.755674-4.013802 26.352035-7.913828 26.560626-7.698916h0.006321z m8.116098 2.111197c0.423504-0.107456 2.951883 1.163055 6.004901 2.951883 25.618805 14.664601 50.694008 33.545274 70.510182 52.950587 5.587719 5.480262 19.39267 19.828816 19.177759 19.936272 0 0-4.848168 0.417183-10.537022 0.840686-44.373059 3.381708-101.173104 12.768316-155.773458 25.947494-3.685113 0.847007-6.953043 1.580237-7.167956 1.580237-0.208591 0 3.900025-4.108617 9.070562-9.06424 32.034568-30.909439 46.692848-50.415886 63.968-85.225351 2.427244-5.164215 4.53212-9.601521 4.740711-9.911247-0.063209 0-0.063209 0 0 0h0.006321z m-234.715786 24.05121c1.472781 0.316047 15.176598 6.750773 25.505028 11.921309 9.487744 4.740711 23.716199 12.338492 24.455751 12.970586 0.101135 0.101135-4.955624 2.736971-11.175438 5.802631a733.495522 733.495522 0 0 0-54.486577 30.062432c-5.056759 3.053018-9.279153 5.587719-9.380288 5.587719-0.429825 0-0.322368-0.423504 2.52838-5.587719 9.481423-17.300436 17.066561-37.976259 21.396411-58.114802 0.417183-1.580237 0.840686-2.635836 1.156733-2.635835v-0.006321z m-13.703816 2.528379c0.316047 0.322368-3.26793 13.292955-5.480263 20.359776-4.323529 13.400411-11.59262 30.169888-18.653119 42.824427-1.687693 2.951883-4.222394 7.275412-5.587719 9.696335l-2.635835 4.222394-5.903766-5.688854c-6.851908-6.649638-12.439627-10.758255-19.607583-14.449689-2.844427-1.479102-5.056759-2.743292-5.056759-2.951883 0-0.847007 18.014704-17.19298 31.832298-29.013154 9.904927-8.533281 30.776699-25.309078 31.086425-24.98671v-0.006321zM820.459133 262.641737l5.170536 3.369065c11.79489 7.698915 25.713619 17.932531 36.358097 26.895637 6.004901 4.955624 17.597521 15.404152 19.92363 17.932531l1.264189 1.371646-8.53328 2.427244c-48.279406 13.400411-85.585645 25.315399-129.118018 41.339004-4.848168 1.80147-8.956784 3.274251-9.272832 3.274252-0.632095 0-1.156734 0.53096 9.702656-9.494065 27.824816-25.625126 52.482837-53.892408 70.82623-81.413819l3.691434-5.695174-0.012642-0.006321z m-22.028506 5.486583c0.214912 0.208591-14.222134 20.562046-22.869192 32.059852-10.32843 13.716459-28.671823 36.699428-41.31372 51.680076-5.26535 6.219813-9.79747 11.390349-10.012383 11.504126-0.316047 0.101135-0.423504-1.479102-0.423504-3.906346 0-12.768316-3.26793-26.370998-8.956784-37.969938-2.427244-4.854489-2.844427-6.011222-2.319788-6.542182 1.99742-1.795149 32.666663-19.304177 52.059333-29.746385 13.065401-6.953043 33.51367-17.294115 33.836038-17.079203zM665.216634 300.820267c0.316047 0 2.743292 1.26419 5.480263 2.73697a115.597509 115.597509 0 0 1 18.128481 12.237357c0.214912 0.214912-2.528379 2.427244-6.112358 5.056759a980.568762 980.568762 0 0 0-34.038308 25.745224c-9.279153 7.382868-9.5952 7.591459-8.533281 6.004901 6.953043-10.650798 10.429565-16.662021 14.120999-24.360936a195.96205 195.96205 0 0 0 8.849329-22.041148c0.840686-3.059339 1.896285-5.379127 2.104875-5.379127z m35.523732 27.843778c0.518318-0.107456 1.156734 0.840686 4.00116 5.056759 6.004901 8.969426 10.644478 20.99187 11.801211 30.700848l0.208592 2.111197-14.437047 5.587718c-25.821075 10.018704-49.63841 19.936272-65.769471 27.31914-5.884803 2.762255-11.756964 5.581398-17.597521 8.438467-5.164215 2.635836-9.380288 4.639576-9.380287 4.538441 0-0.107456 3.26793-2.5347 7.269091-5.486584 31.522571-22.888155 58.816427-47.988642 79.264696-73.089129 2.212332-2.642157 4.216073-5.069401 4.424664-5.176857h0.208591z m-16.339652 4.007482c0.423504 0.417183-11.59262 14.026185-19.816174 22.357195-20.340813 20.776958-40.473034 37.021796-65.453424 52.843131-3.160474 1.99742-6.004901 3.792569-6.320948 4.007481-0.739551 0.417183 0.208591-0.632095 11.169116-12.553404a288.804143 288.804143 0 0 0 18.235937-21.617644c4.007481-5.164215 4.740711-5.903766 10.543342-10.025025 15.486324-11.181758 51.224968-35.435238 51.642151-35.018055z" fill="#DB070E" /><path d="M227.301313 769.708236c-1.953173 0-3.900025 0.189628-5.827915 0.189629-39.316301 2.085913-65.839001 19.373708-81.350609 53.133894-13.255029 30.530182-11.807532 70.434331 0.151703 101.14782 13.912408 30.011864 36.389701 45.852161 73.910853 51.831779 7.939111 1.302115 13.26135 5.657249 28.633897 23.583459l18.918599 22.142283h34.31643l-22.818624-22.976648c-12.616613-12.597651-22.818625-23.570817-22.818625-24.525281 0-0.967105 4.829205-3.078302 10.669761-4.860809 19.25361-5.815273 35.24561-20.675823 46.427368-43.44388 9.051598-18.286504 10.353714-23.937432 11.643188-46.686527 3.394349-67.710002-32.344294-110.047716-91.862347-109.561002v0.025283z m30.081395 177.075055c-16.687304 8.078172-40.934463 9.690014-56.755798 3.893705-16.352294-6.004901-32.192591-22.976648-39.322622-42.186011-7.920149-21.010833-6.788699-59.764569 2.2629-77.22303 14.557145-27.78689 33.810754-40.567848 61.945296-40.567848 41.730903 0 65.472386 25.530312 68.569651 73.512632 2.446207 40.055852-10.985809 70.09932-36.693107 82.55159l-0.018962 0.012642 0.012642 0.00632z m592.727995-119.238375c-14.3928 0-25.410214 5.821594-32.831007 17.281474l-5.815273 9.083203v-23.602422h-24.910859v141.538682h24.891896v-45.23903c0-41.370609 0.511997-46.206135 6.301986-57.526953 7.977037-15.52425 21.693496-23.261091 34.961167-19.563336l8.899896 2.591589v-24.525281h-11.497806v-0.037926z m-146.336282-1.295794c-4.886093 0-10.056629 0.651058-15.214523 1.776186-33.324041 8.703946-52.116222 40.574169-50.97213 73.367251 0 27.458201 5.347523 41.18098 18.608873 55.580102 27.167437 22.268702 51.743286 24.05121 84.902982 12.098295 5.66357-2.40196 11.820174-5.183178 11.820174-5.183178v-22.275023l-11.820174 6.112358c-26.832427 11.674792-47.053142 11.674792-63.241091-2.073271-10.32843-10.505417-14.879513-23.103067-16.971747-37.476905h100.433553v-19.089265c0-38.899118-23.450719-63.468645-57.571201-62.83655h0.025284z m-40.618416 62.065395s3.710397-24.272443 17.464781-33.798113a37.609644 37.609644 0 0 1 21.661891-6.921439c7.604101 0 14.99329 2.490454 21.036117 7.098426 12.616613 9.690014 14.72781 33.437818 14.727811 33.437818h-74.8906v0.183308z m-600.509083-25.536633c-26.996772-16.339652-38.98129-28.11558-37.51483-42.009025 4.190789-38.44401 51.743286-33.128092 78.082678-18.583589l0.189629-25.859s-14.563466-6.301986-35.435238-6.636996c-32.009284-0.480392-52.710391 10.006062-62.413047 31.351905-14.247418 31.490966-1.630805 55.245091 43.955877 81.736187 25.599842 14.879513 36.91434 27.793211 36.91434 41.869963 0 29.095327-35.11287 39.240449-71.338227 20.991871-7.458719-3.697755-13.760705-6.79502-14.095715-6.79502-1.302115 8.242517-0.632095 27.970198-0.632095 27.970198s11.12487 4.671181 27.818495 7.888544c41.402214 8.248838 79.075067-11.143832 82.627441-42.647441 3.097265-29.569398-7.604101-45.068364-48.165629-69.283918v0.018963l0.006321-0.006321z m1007.913186-36.863772c-4.86081 0-10.012383 0.670021-15.397831 1.80147-33.286116 8.703946-52.04037 40.567848-50.757218 73.36093 0 27.420275 5.322239 41.022957 18.577268 55.390473 27.180079 22.287665 51.749606 24.082814 85.079969 12.123579 5.631965-2.414602 11.775927-5.151573 11.775927-5.151573v-22.306628l-11.79489 6.150283c-26.895636 11.630545-47.116351 11.630545-63.247412-2.111196-10.39164-10.492775-14.892155-22.932402-16.99071-37.483226h100.269208v-19.076623c0-38.722131-23.450719-63.310622-57.5712-62.653243l0.056889-0.044246z m-40.618416 62.065394s3.748323-24.234517 17.490065-33.943494a37.38209 37.38209 0 0 1 21.649249-6.940401c7.59778 0 14.99329 2.496775 21.029796 7.111067 12.616613 9.690014 14.72781 33.602163 14.72781 33.602163h-74.871636l-0.018963 0.170665h-0.006321z m-456.56212-24.879254c-26.996772-16.308047-38.943365-28.128221-37.495868-42.021666 4.190789-38.456652 51.749606-33.121771 78.082679-18.583589l0.189628-25.85268s-14.563466-6.301986-35.428917-6.59907c-32.009284-0.480392-52.716712 9.999741-62.432009 31.345584-14.222134 31.490966-1.441176 55.245091 43.993802 81.742508 25.561916 14.854229 36.870093 27.603583 36.870094 41.680335 0 29.089006-35.087586 39.404794-71.312943 20.99187-7.420794-3.704076-13.716459-6.763415-14.095715-6.763415-1.295794 8.242517-0.632095 27.976519-0.632095 27.976519s10.998451 4.500515 27.641508 7.894865c41.433818 8.26148 79.119314-11.118549 82.665366-42.609515 3.084623-29.417695-7.604101-44.929303-48.039209-69.157499v-0.044247z m643.53578-35.884025c-14.3928 0-25.536632 5.834236-32.824686 17.300436l-5.827915 9.038957v-23.564496h-24.904537v141.500756h24.885575v-45.23903c0-41.351646 0.499355-46.206135 6.308306-57.50799 7.970716-15.505287 21.693496-23.267412 34.954846-19.544374l8.899896 2.591589v-24.58849h-11.491485v0.012642z m-841.609027 35.068623v-90.15569h-25.113129v199.678767H455.803606v-23.577138H375.306325v-85.945939z m580.749798 28.102938l-20.701107 53.797594-19.904667-54.094679-20.214394-59.954198h-25.700977c16.649379 47.17324 34.771538 95.14924 53.045401 141.671422 7.920149 0.189628 15.852939 0 23.766767 0l27.957556-70.09932 28.469552-71.553139h-24.575848s-10.853069 28.418985-22.161246 60.244962l0.018963-0.018963v0.006321z m-522.887834-172.669354c4.045407 0 7.420794-1.289474 10.202011-4.070691 2.743292-2.743292 4.190789-5.966976 4.190789-9.999741 0-4.039086-1.441176-7.414473-4.190789-10.006062-2.781217-2.591589-5.992259-3.887383-10.012382-3.887383-4.020123 0-7.458719 1.295794-10.202012 4.045407-2.781217 2.736971-4.045407 6.106036-4.045407 9.999741 0 3.900025 1.302115 7.452398 4.045407 10.006062 2.59791 2.591589 5.973296 3.887383 10.012383 3.887383v0.037926-0.012642z m-8.899896-22.970328c2.414602-2.408281 5.341202-3.520768 9.089525-3.520768 3.527089 0 6.447368 1.112487 8.912537 3.520768 2.40196 2.408281 3.704076 5.334881 3.704076 8.893575 0 3.558694-1.302115 6.636996-3.710397 9.038957-2.446207 2.40196-5.379127 3.552373-8.912537 3.552373-3.520768 0-6.491614-1.106166-8.893575-3.552373a12.426985 12.426985 0 0 1-3.710397-9.038957c0-3.558694 1.112487-6.485293 3.527089-8.893575z m5.99226 10.18937h1.630804c1.150413 0 2.275542 1.112487 3.248968 3.223683l1.946852 4.374097h3.059339l-2.414602-4.86081c-0.979747-1.940531-1.946852-3.071981-3.078302-3.388028 1.428534-0.33501 2.559984-0.809081 3.369066-1.776187 0.821723-0.834365 1.118808-1.965815 1.118808-3.242646 0-1.485423-0.46775-2.591589-1.453819-3.413312-1.106166-0.922859-2.888674-1.422213-5.189498-1.422214h-5.151574v18.103197h2.591589v-7.59778h0.316048z m0-8.406862h2.262899c1.630805 0 2.781217 0.328689 3.413313 0.809081 0.613132 0.480392 0.777477 1.112487 0.777476 2.256579 0 2.092234-1.295794 3.078302-3.704076 3.078302h-2.781217v-6.150283h0.031605zM15.423115 703.325634c0-6.295665-0.189628-10.979488-0.335011-13.741743h0.151703c0.644737 3.255289 1.447497 5.688854 2.085913 7.294375l24.114419 53.803915h4.045407l24.114419-54.284307c0.651058-1.479102 1.295794-3.704076 2.098555-6.801341h0.189629c-0.486713 5.372806-0.651058 10.043987-0.651058 13.767026v47.482967h8.255159v-70.586034H69.151178l-22.161246 49.094808c-0.821723 1.946852-1.953173 4.854489-3.40067 8.710267h-0.32869c-0.480392-1.908926-1.618163-4.816563-3.223683-8.375256l-21.668212-49.594163H7.363905v70.586033H15.296696v-47.318622l0.13274-0.037925z m82.147048 0.13274h7.123709v43.962197h-7.123709v-43.962197z m3.565015-16.118419c1.485423 0 2.743292-0.505676 3.704076-1.485423a5.138931 5.138931 0 0 0 1.637126-3.697755 4.614293 4.614293 0 0 0-1.618163-3.704076 5.208462 5.208462 0 0 0-3.748323-1.485423 5.056759 5.056759 0 0 0-3.710396 1.485423 5.19582 5.19582 0 0 0-1.630805 3.704076c0 1.611842 0.505676 2.736971 1.630805 3.697755a5.347523 5.347523 0 0 0 3.710396 1.485423h0.025284z m54.341196 61.041401v-7.743162c-3.893704 2.907636-8.090814 4.355134-12.426985 4.355133-5.183178 0-9.399251-1.782508-12.483874-5.183178-3.059339-3.369066-4.690144-8.06553-4.690144-13.906087 0-5.827915 1.630805-10.960525 5.006191-14.664601 3.248968-3.565015 7.458719-5.341202 12.616614-5.341201 4.203431 0 8.248838 1.295794 11.978198 3.893704v-8.242517c-3.394349-1.776187-7.269091-2.591589-11.649509-2.591589-8.090814 0-14.3928 2.591589-19.101907 7.59146-4.677502 5.006191-7.079462 11.801211-7.079462 20.005802 0 7.300696 2.085913 13.432016 6.447368 18.12216 4.544762 4.816563 10.353714 7.26277 17.471102 7.26277 5.505546-0.151703 10.012383-1.308436 13.906087-3.565015h0.006321z m20.385059-23.438078c0-5.79631 1.295794-10.480133 3.704076-13.710137 2.269221-2.907636 5.006191-4.367776 8.255159-4.367776 2.749613 0 4.696465 0.499355 6.118678 1.630805v-8.406862c-1.112487-0.486713-2.724329-0.651058-4.816563-0.651058-2.913957 0-5.511867 0.979747-7.793729 2.781218-2.408281 1.896285-4.336171 4.810242-5.467621 8.520639h-0.189629v-10.32211h-8.06553v50.390603h8.090814v-25.859001h0.164345z m46.421047 26.864032c7.610422 0 13.7291-2.446207 18.267541-7.300696 4.53212-4.822884 6.788699-11.301856 6.788699-19.380028 0-8.078172-2.073271-14.538182-6.308307-19.234647-4.190789-4.677502-10.012383-6.946723-17.616483-6.946723-7.610422 0-13.7291 2.2629-18.267542 6.636996-4.86713 4.816563-7.420794 11.617904-7.420794 20.340813 0 7.59778 2.079592 13.906087 6.447368 18.583589 4.53212 4.854489 10.518059 7.281733 18.103197 7.281733v0.018963h0.006321z m-11.504127-41.054562c3.084623-3.242647 7.123709-4.854489 12.136222-4.854488 5.006191 0 9.083203 1.611842 11.978197 4.854488 2.907636 3.394349 4.361455 8.223554 4.361455 14.689885s-1.302115 10.99213-4.045407 14.228455c-2.743292 3.388028-6.788699 5.189499-12.136222 5.189499-5.334881 0-9.209622-1.80147-12.287924-5.183178-3.059339-3.413312-4.525799-8.084493-4.525799-14.234776-0.316047-6.112357 1.295794-11.112228 4.525799-14.689885z m71.970321 36.661503c3.078302-2.736971 4.715428-6.112357 4.715428-10.341072 0-3.704076-1.302115-6.776057-3.710397-9.203302-1.972136-1.946852-5.012512-3.704076-9.405571-5.480262-3.893704-1.624484-6.308307-3.078302-7.604102-4.209752a6.908797 6.908797 0 0 1-2.098555-5.183178c0-2.098555 0.821723-3.710397 2.414603-5.006191 1.630805-1.289474 3.704076-1.927889 6.491614-1.927889 4.361455 0 8.090814 1.150413 11.504127 3.577656v-8.078172c-3.26793-1.624484-6.813983-2.40196-10.853069-2.40196-5.19582 0-9.569916 1.428534-12.799921 4.184468a12.907377 12.907377 0 0 0-5.006191 10.486453c0 3.704076 1.112487 6.782378 3.223683 9.038957 1.782508 1.921568 4.829205 3.887383 9.05792 5.644607 4.045407 1.782508 6.788699 3.394349 8.255159 4.690144 1.447497 1.295794 2.092234 2.907636 2.092234 4.822884 0 4.702786-3.223684 7.13003-9.531991 7.13003-4.86713 0-9.215943-1.592879-13.115968-4.816563v8.703946c3.527089 2.117518 7.755804 3.078302 12.426985 3.078302 5.992259-0.316047 10.682403-1.776187 13.906087-4.683823l0.044246-0.025283h-0.006321z m38.500899-48.462714c-7.604101 0-13.722779 2.2629-18.267542 6.636996-4.816563 4.816563-7.414473 11.617904-7.414473 20.340813 0 7.59778 2.098555 13.899766 6.447368 18.583589 4.551083 4.854489 10.518059 7.281733 18.128481 7.281733 7.604101 0 13.722779-2.446207 18.267541-7.300696 4.538441-4.816563 6.807662-11.301856 6.807662-19.380028 0-8.078172-2.117518-14.544503-6.308307-19.228326-4.374096-4.690144-10.202011-6.953043-17.622805-6.953044l-0.037925 0.025284z m15.694915 26.491096c0 6.150283-1.302115 10.99213-4.045407 14.228455-2.743292 3.388028-6.788699 5.189499-12.136222 5.189499-5.341202 0-9.215943-1.80147-12.294245-5.183178-3.059339-3.413312-4.525799-8.084493-4.525799-14.234776 0-6.485293 1.611842-11.478843 4.86081-14.854229 3.059339-3.223684 7.104746-4.854489 12.123579-4.854489 5.025154 0 9.038957 1.624484 11.946593 4.854489 2.591589 3.558694 4.045407 8.387899 4.045407 14.854229h0.025284z m21.845198 25.220585h8.065531v-43.633508h11.820174v-6.776057h-11.820174v-7.781088c0-7.079462 2.743292-10.638157 8.425824-10.638157 1.908926 0 3.855779 0.480392 5.309597 1.302116v-7.281733c-1.453818-0.644737-3.40067-0.79644-5.834235-0.79644-4.361455 0-7.920149 1.295794-10.834106 4.032766-3.388028 3.223684-5.189499 7.414473-5.189499 13.084363v8.26148h-8.533281v6.782378h8.533281v43.462843l0.050568-0.025284h0.00632z m33.147055-13.748063c0 9.86068 4.361455 14.879513 13.255029 14.879513 3.223684 0 5.657249-0.518318 7.610423-1.668731v-6.927759a8.451108 8.451108 0 0 1-5.19582 1.630805c-2.743292 0-4.677502-0.651058-5.802631-2.117518-1.150413-1.441176-1.80147-3.887383-1.80147-7.269091v-28.431627h12.7936v-6.782378h-12.7936v-14.854229c-2.781217 0.960784-5.511867 1.776187-8.090815 2.591589v12.26264h-8.716588v6.782378h8.722909v29.885445l0.018963 0.018963z m868.005309 92.88634c-2.743292-2.591589-5.985938-3.887383-10.012383-3.887383-4.026444 0-7.458719 1.295794-10.202011 4.077012-2.743292 2.718008-4.045407 6.112357-4.045407 10.006061 0 3.887383 1.295794 7.408152 4.026444 9.999741 2.743292 2.591589 6.118678 3.893704 10.202011 3.893704 4.077012 0 7.420794-1.302115 10.202011-4.045407 2.718008-2.781217 4.171826-5.979617 4.171826-9.999741-0.145382-4.077012-1.611842-7.452398-4.361454-10.050308h0.018963v0.006321z m-1.295795 19.089265c-2.414602 2.40196-5.341202 3.514447-8.906216 3.514447-3.558694 0-6.447368-1.112487-8.899896-3.520768a12.547083 12.547083 0 0 1-3.710397-9.076882c0-3.577657 1.112487-6.447368 3.558694-8.893575 2.414602-2.40196 5.32856-3.520768 9.051599-3.520768 3.520768 0 6.453689 1.118808 8.899895 3.520768 2.408281 2.446207 3.704076 5.372806 3.704076 8.893575 0 3.742002-1.112487 6.636996-3.704076 9.076882z m-7.269091-8.248838c1.441176-0.33501 2.591589-0.979747 3.388029-1.776187 0.815402-0.834365 1.112487-1.965815 1.112487-3.261609 0-1.447497-0.46775-2.591589-1.447497-3.388029-1.112487-0.929179-2.907636-1.434855-5.183178-1.434855h-5.164215v18.084234h2.59791v-7.59778h1.611841c1.112487 0 2.231295 1.112487 3.223684 3.223684l1.93421 4.355133h3.078302l-2.414602-4.854488c-0.834365-2.111197-1.795149-3.078302-2.781217-3.39435l0.031604 0.044247h0.006321z m-1.788828-1.630805h-2.781218v-6.112357h2.281863c1.611842 0 2.749613 0.297085 3.394349 0.80276 0.644737 0.480392 0.80276 1.112487 0.802761 2.256579 0 2.085913-1.302115 3.053018-3.710397 3.053018h0.012642z m-451.227239-140.849698h2.256578v-18.103197h5.99226v-2.256579h-14.247419v2.256579h5.998581v18.103197z m13.722779-13.602682c0-1.763545 0-3.204721-0.126419-4.020123 0.145382 0.960784 0.480392 1.611842 0.632095 2.085913l6.953043 15.530571h1.112487l6.972007-15.675953c0.189628-0.480392 0.33501-1.112487 0.651057-1.946852-0.145382 1.611842-0.145382 2.907636-0.145381 3.887383v13.716459h2.414602v-20.347134h-2.913957l-6.301986 14.045148c-0.145382 0.505676-0.651058 1.479102-0.967105 2.591589h-0.189629c-0.126419-0.644737-0.455108-1.289474-0.922858-2.40196l-6.308307-14.228456h-3.261609v20.378739h2.281862v-13.596361l0.126419-0.025284v0.006321z" fill="#252D3F" /></svg>