<?xml version="1.0" standalone="no"?><!DOCTYPE svg PUBLIC "-//W3C//DTD SVG 1.1//EN" "http://www.w3.org/Graphics/SVG/1.1/DTD/svg11.dtd"><svg t="1719645476187" class="icon" viewBox="0 0 1024 1024" version="1.1" xmlns="http://www.w3.org/2000/svg" p-id="18673" xmlns:xlink="http://www.w3.org/1999/xlink" width="200" height="200"><path d="M531.9 689.332a687.68 687.68 0 0 1 47.332-18.732 349.264 349.264 0 0 1 22.836-7.368c6.1-1.7 12.232-4 18.332-5.664a713.532 713.532 0 0 1 275.6-22.7v-95.9a799.332 799.332 0 0 0-304.532 27.8 227.4 227.4 0 0 0-18.336 5.664 411.656 411.656 0 0 0-23.964 7.968c-15.6 5.668-31.168 11.332-46.2 17.568l28.932 91.364z" fill="#07C846" p-id="18674"></path><path d="M895.432 228.068v287.064a824.2 824.2 0 0 0-354.064 43.136c-15.568 5.664-31.168 10.2-46.768 15.332a1102.832 1102.832 0 0 1-398.032 44.232V330.768c102.432 10.2 207.664 1.1 311.764-29.536 14.236-4 28.336-8.532 42.3-13.6a1098.9 1098.9 0 0 1 444.8-59.564z" fill="#0181FD" p-id="18675"></path><path d="M460.1 156a687.68 687.68 0 0 1-47.332 18.732 349.26 349.26 0 0 1-22.836 7.368c-6.1 1.7-12.232 4-18.332 5.668A713.532 713.532 0 0 1 96 210.468v95.9c99.668 10.2 202.668 1.7 304.532-27.8 6.1-1.7 12.236-3.4 18.336-5.668a395.632 395.632 0 0 0 23.964-7.968c15.6-5.664 31.168-11.332 46.2-17.564L460.1 156z" fill="#FFA005" p-id="18676"></path><path d="M924.028 782.88l-1.76 10.94a1.296 1.296 0 0 1-1.148 1.076 178.772 178.772 0 0 1-27.8 0.928 1.416 1.416 0 0 1-1.012-0.488 1.276 1.276 0 0 1-0.292-1.04l5.904-35.44a1 1 0 0 1 1.032-0.816c9.108 0.368 17.648 0.084 25.62-0.848 14.912-1.776 29.356-6.496 44.88-8.368 7.836-0.932 15.06-1.072 21.68-0.424 0.676 0.068 0.96 0.424 0.844 1.076l-3.94 22.952c-0.1 0.632-0.484 0.912-1.152 0.848a85.068 85.068 0 0 0-28.308 1.776c-12.816 3.016-23.908 5.224-33.28 6.624-0.732 0.108-1.152 0.512-1.268 1.204zM69.22 868.864C46.656 862.088 34.22 840.276 36.208 816.912 39.856 773.712 78.156 742.392 120.912 748.84 152.664 753.624 168.8 780.268 162.744 810.948 154.24 854.132 111.72 881.616 69.224 868.864zM124.88 785.712c-5.388-5.584-13.184-8.38-21.68-7.772-8.488 0.608-16.98 4.568-23.6 11.012-6.62 6.44-10.832 14.84-11.704 23.34-0.872 8.504 1.668 16.416 7.056 22s13.184 8.376 21.68 7.768c8.488-0.604 16.98-4.568 23.6-11.008 6.62-6.44 10.832-14.84 11.704-23.34 0.872-8.504-1.668-16.416-7.056-22zM254.324 789.504a0.788 0.788 0 1 1-1.44 0.336c-7.296-10.564-17.536-14.08-30.72-10.536-18.6 4.988-31.352 27.548-25.5 46.024 1.76 5.572 5.028 9.88 9.816 12.912 13.328 8.48 29.24 1.988 39.804-7.972 0.84-0.8 1.168-0.62 0.98 0.536l-5.604 34.088a1.94 1.94 0 0 1-1.16 1.468c-26.412 10.74-55.656 7.164-70.248-19.64-5.352-9.86-7.24-22.488-5.768-33.564 2.784-20.952 12.632-37.932 29.544-50.948 18.72-14.4 43.884-18.98 65.22-8.48 0.588 0.292 0.828 0.764 0.732 1.416l-5.656 34.36zM891.268 756.884c0.8 0.448 0.944 1.056 0.44 1.82l-14.744 22.264c-0.384 0.584-0.832 0.64-1.352 0.168a36.772 36.772 0 0 0-4.096-3.196c-8.672-5.856-23.212-6.548-27.224 5.016-1.672 4.8 3.404 8.736 7.352 10.116 14.388 5.032 31.36 9.54 33.028 27.94 0.472 5.26 0 10.48-1.416 15.668-10.528 38.392-57.856 44.248-86.028 23.56-1.392-1.02-1.6-2.236-0.624-3.648l15.248-22.252a1.02 1.02 0 0 1 0.804-0.44 1.056 1.056 0 0 1 0.852 0.372c4.632 5.736 10.72 9.416 18.268 11.04 8.84 1.904 18.32-1.512 20.476-11.056 1.148-5.048-3.24-8.552-7.32-10.352a182.84 182.84 0 0 0-13.528-5.3c-17.88-6.196-22.772-18.496-18.152-36.576 0.868-3.388 2.032-6.48 3.492-9.272 14.948-28.48 48.528-30.38 74.52-15.872zM296.052 796.92h57.368c0.2 0 0.392 0.088 0.52 0.24a0.648 0.648 0 0 1 0.152 0.54l-4.292 24.464a0.68 0.68 0 0 1-0.692 0.552l-57.884 0.064a0.68 0.68 0 0 0-0.692 0.548l-3.156 18.112a0.648 0.648 0 0 0 0.148 0.54c0.132 0.152 0.32 0.24 0.524 0.24l59.32-0.016c0.2 0 0.392 0.092 0.52 0.24a0.648 0.648 0 0 1 0.152 0.544l-4.24 24.464a0.684 0.684 0 0 1-0.692 0.548H252.68a0.7 0.7 0 0 1-0.524-0.24 0.648 0.648 0 0 1-0.148-0.54l20.328-114.672A0.684 0.684 0 0 1 273.032 752l90.284 0.016c0.2 0 0.396 0.092 0.524 0.24a0.648 0.648 0 0 1 0.148 0.544L359.68 777.596a0.68 0.68 0 0 1-0.692 0.548l-59.956 0.08a0.68 0.68 0 0 0-0.688 0.552l-2.968 17.36a0.648 0.648 0 0 0 0.152 0.544c0.128 0.152 0.32 0.24 0.52 0.24zM435.872 847.94l-41.136 0.084a0.736 0.736 0 0 0-0.648 0.4l-9.864 19.112a0.736 0.736 0 0 1-0.668 0.4l-30.824 0.016a0.74 0.74 0 0 1-0.628-0.348 0.7 0.7 0 0 1-0.02-0.7L415.48 752.4a0.736 0.736 0 0 1 0.648-0.384L447.972 752c0.352 0 0.652 0.244 0.72 0.58l23.296 114.572a0.7 0.7 0 0 1-0.156 0.588 0.74 0.74 0 0 1-0.56 0.26l-30.828-0.068a0.728 0.728 0 0 1-0.732-0.6l-3.108-18.792a0.728 0.728 0 0 0-0.732-0.6z m-28.964-24.128a0.616 0.616 0 0 0 0.028 0.612c0.12 0.188 0.328 0.3 0.552 0.3l24.236 0.08a0.656 0.656 0 0 0 0.488-0.22 0.62 0.62 0 0 0 0.144-0.508l-6.024-34.768a0.652 0.652 0 0 0-1.212-0.184l-18.212 34.688z" fill="#181818" p-id="18677"></path><path d="M500.968 868h-28.448a0.516 0.516 0 0 1-0.512-0.6l19.612-114.936a0.516 0.516 0 0 1 0.496-0.432l28.664 0.016c0.2 0 0.376 0.108 0.464 0.284l32.8 66.976a0.516 0.516 0 0 0 0.96-0.132l11.528-66.728a0.516 0.516 0 0 1 0.5-0.432L595.48 752a0.516 0.516 0 0 1 0.512 0.6l-19.612 114.952a0.516 0.516 0 0 1-0.496 0.432l-28.648-0.016a0.516 0.516 0 0 1-0.464-0.284l-32.8-66.976a0.516 0.516 0 0 0-0.96 0.132l-11.544 66.728a0.516 0.516 0 0 1-0.5 0.432zM663.256 806.64c11.672 2.872 17.24 10.152 16.708 21.84-1.132 24.56-18.92 39.504-42.86 39.488-17.016-0.024-34.468-0.012-52.36 0.032a0.752 0.752 0 0 1-0.732-0.88l19.572-114.54c0.056-0.344 0.264-0.52 0.62-0.532 16.98-0.08 32.604-0.06 46.876 0.048 17.024 0.12 29.268 7.28 27.12 27.108-1.368 12.56-5.932 19.628-15.16 26.34-0.712 0.52-0.64 0.888 0.216 1.096z m-21.74-10.22c9.2-2.476 13.08-19.508 0.5-20.408a120.772 120.772 0 0 0-11.944-0.216c-0.564 0.024-0.892 0.312-0.984 0.864l-3.348 19.828c-0.132 0.808 0.212 1.236 1.036 1.28 5.464 0.28 10.376-0.172 14.74-1.348z m-23.872 47.3a0.364 0.364 0 0 0 0.352 0.432c10.376 0.432 30.484 2.376 31.984-12.764 0.32-3.224-0.46-5.7-2.348-7.428-4.916-4.52-18.56-3.96-25.004-3.672-0.668 0.02-1.056 0.36-1.168 1.012l-3.816 22.42zM744.104 789.164l-14.876 29.168c-0.584 1.128-0.244 1.556 1.008 1.28 15.988-3.56 31.2-8.232 47.32-8.696 0.86-0.02 1.604 0.572 1.768 1.396l4.64 23.296c0.156 0.808-0.18 1.14-1.012 1-11.868-2.016-25.5 1.344-37.4 4.588a149.008 149.008 0 0 1-29.856 4.82 1.608 1.608 0 0 0-1.344 0.88l-10.256 20.32a1.388 1.388 0 0 1-1.276 0.784h-30.224a0.592 0.592 0 0 1-0.512-0.284 0.576 0.576 0 0 1-0.008-0.58l62.38-114.356a1.472 1.472 0 0 1 1.28-0.748L766.212 752c0.568 0 1.056 0.392 1.16 0.932l10.288 50.716a1.164 1.164 0 0 1-1.092 1.4c-8.508 0.328-17.384 1.664-26.628 4.004a1.248 1.248 0 0 1-0.976-0.156 1.188 1.188 0 0 1-0.54-0.808l-3.16-18.74c-0.2-1.232-0.588-1.292-1.16-0.184z" fill="#181818" p-id="18678"></path><path d="M644.104 772.296c12.42 0.976 8.588 19.468-0.496 22.16-4.308 1.272-9.16 1.76-14.56 1.456-0.812-0.048-1.152-0.508-1.02-1.388l3.308-21.52c0.088-0.604 0.408-0.92 0.968-0.94a108.548 108.548 0 0 1 11.8 0.232z" fill="#FFFFFF" p-id="18679"></path><path d="M74.383005 832.263073a28.956 34.48 45.9 1 0 49.52199-47.990146 28.956 34.48 45.9 1 0-49.52199 47.990146Z" fill="#FFFFFF" p-id="18680"></path><path d="M404.064 822.892l17.124-38.52c0.12-0.264 0.376-0.408 0.632-0.36 0.256 0.04 0.46 0.272 0.508 0.564l5.664 38.612a0.776 0.776 0 0 1-0.136 0.56 0.584 0.584 0 0 1-0.456 0.252l-22.788-0.092a0.6 0.6 0 0 1-0.52-0.332 0.792 0.792 0 0 1-0.028-0.68z" fill="#FFFFFF" p-id="18681"></path><path d="M943.508 817.988c-18.112 4.848-35.944 6.568-54.54 5.86-0.748-0.036-1.064-0.428-0.944-1.184l3.864-23.648c0.1-0.616 0.452-0.9 1.06-0.84 11.988 0.956 24.184 0.072 36.592-2.652 18.144-3.984 34.336-8.44 53.56-7.36 0.696 0.044 0.988 0.416 0.88 1.116l-3.764 23.932a0.84 0.84 0 0 1-0.912 0.728c-12.164-1.232-24.08 0.912-35.796 4.048z" fill="#181818" p-id="18682"></path><path d="M620.008 839.264l4.236-22.08c0.12-0.648 0.556-0.98 1.296-1 7.16-0.28 22.316-0.836 27.772 3.616 2.096 1.704 2.968 4.14 2.608 7.32-1.664 14.908-24 12.992-35.524 12.568a0.428 0.428 0 0 1-0.304-0.136 0.332 0.332 0 0 1-0.084-0.288z" fill="#FFFFFF" p-id="18683"></path><path d="M915.324 840.376c7.76-1.4 15.316-3.064 22.656-4.992 12.676-3.34 25.112-4.708 37.312-4.1a0.72 0.72 0 0 1 0.548 0.28c0.132 0.176 0.188 0.4 0.148 0.616l-3.892 24.692c-0.068 0.408-0.416 0.696-0.796 0.656-12.852-1.224-25.852 1.84-38.452 5.164-16.88 4.444-34.448 6.028-51.736 5.012a1.172 1.172 0 0 1-0.856-0.456 1.232 1.232 0 0 1-0.24-0.956l5.928-36.56c0.12-0.732 0.536-1.064 1.244-0.996 8.436 0.768 17.628 0.528 27.572-0.72 0.64-0.08 0.912 0.208 0.812 0.876l-1.52 10.192c-0.16 1.044 0.268 1.48 1.272 1.292zM755.392 867.096l-3.372-19.444c-0.1-0.58 0.16-0.944 0.792-1.092 9.64-2.212 19.128-2.992 28.48-2.336 0.976 0.064 1.784 0.708 1.976 1.572l4.692 21.144c0.16 0.708-0.156 1.06-0.944 1.06l-30.492-0.016c-0.652 0-1.032-0.296-1.132-0.888z" fill="#181818" p-id="18684"></path></svg>