<?xml version="1.0" standalone="no"?><!DOCTYPE svg PUBLIC "-//W3C//DTD SVG 1.1//EN" "http://www.w3.org/Graphics/SVG/1.1/DTD/svg11.dtd"><svg class="icon" width="200px" height="52.39px" viewBox="0 0 3909 1024" version="1.1" xmlns="http://www.w3.org/2000/svg"><path d="M0 0h3909.818182v1024H0z" fill="#D40000" /><path d="M167.563636 155.927273h565.527273v74.472727L276.945455 786.618182H744.727273v81.454545H155.927273v-74.472727l456.145454-556.218182H167.563636zM1126.4 251.345455L993.745455 605.090909h265.30909l-132.654545-353.745454zM1070.545455 155.927273h109.381818l274.618182 712.145454h-100.072728l-65.163636-181.527272h-325.818182l-65.163636 181.527272h-102.4L1070.545455 155.927273zM1657.018182 528.290909v260.654546h155.927273c53.527273 0 90.763636-11.636364 116.363636-32.581819 25.6-20.945455 37.236364-53.527273 37.236364-97.745454 0-44.218182-11.636364-76.8-37.236364-97.745455-25.6-20.945455-65.163636-32.581818-116.363636-32.581818h-155.927273z m0-293.236364v214.109091h144.290909c46.545455 0 83.781818-9.309091 107.054545-25.6 23.272727-18.618182 34.909091-44.218182 34.909091-81.454545 0-34.909091-11.636364-62.836364-34.909091-81.454546-23.272727-18.618182-58.181818-25.6-107.054545-25.6h-144.290909zM1559.272727 155.927273h249.018182c74.472727 0 130.327273 16.290909 172.218182 46.545454 39.563636 30.254545 60.509091 74.472727 60.509091 130.327273 0 44.218182-9.309091 79.127273-30.254546 104.727273s-51.2 41.890909-90.763636 48.872727c48.872727 9.309091 86.109091 30.254545 111.709091 62.836364 25.6 32.581818 39.563636 72.145455 39.563636 121.018181 0 62.836364-20.945455 111.709091-65.163636 146.618182s-104.727273 51.2-186.181818 51.2H1559.272727V155.927273zM2324.945455 528.290909v260.654546h155.927272c51.2 0 90.763636-11.636364 116.363637-32.581819 25.6-20.945455 37.236364-53.527273 37.236363-97.745454 0-44.218182-11.636364-76.8-37.236363-97.745455-25.6-20.945455-65.163636-32.581818-116.363637-32.581818h-155.927272z m0-293.236364v214.109091h144.290909c46.545455 0 83.781818-9.309091 107.054545-25.6 23.272727-18.618182 34.909091-44.218182 34.909091-81.454545 0-34.909091-11.636364-62.836364-34.909091-81.454546-23.272727-18.618182-58.181818-25.6-107.054545-25.6h-144.290909z m-97.745455-79.127272h249.018182c74.472727 0 130.327273 16.290909 172.218182 46.545454 39.563636 30.254545 60.509091 74.472727 60.509091 130.327273 0 44.218182-9.309091 79.127273-30.254546 104.727273s-51.2 41.890909-90.763636 48.872727c48.872727 9.309091 86.109091 30.254545 111.709091 62.836364 25.6 32.581818 39.563636 72.145455 39.563636 121.018181 0 62.836364-20.945455 111.709091-65.163636 146.618182s-104.727273 51.2-186.181819 51.2H2227.2V155.927273zM3174.4 155.927273h107.054545l169.89091 256 172.218181-256h102.4L3502.545455 488.727273l251.345454 379.345454h-107.054545l-197.818182-297.890909-197.818182 297.890909h-104.727273L3397.818182 491.054545zM2892.8 155.927273h97.745455v712.145454h-97.745455z" fill="#FFFFFF" /></svg>